<svg width="20" height="20" viewBox="0 0 20 20" fill="none" xmlns="http://www.w3.org/2000/svg">
<path fill-rule="evenodd" clip-rule="evenodd" d="M10 16.8C13.7555 16.8 16.8 13.7555 16.8 10C16.8 6.24446 13.7555 3.2 10 3.2C6.24446 3.2 3.2 6.24446 3.2 10C3.2 13.7555 6.24446 16.8 10 16.8ZM10 18C14.4183 18 18 14.4183 18 10C18 5.58172 14.4183 2 10 2C5.58172 2 2 5.58172 2 10C2 14.4183 5.58172 18 10 18Z" fill="#FE9015"/>
<path d="M7.90279 10.3128C7.34143 10.3128 6.88214 10.1192 6.52491 9.73184C6.17497 9.33706 6 8.81192 6 8.15642C6 7.50093 6.17497 6.97952 6.52491 6.59218C6.88214 6.19739 7.34143 6 7.90279 6C8.46416 6 8.91981 6.19739 9.26974 6.59218C9.61968 6.97952 9.79465 7.50093 9.79465 8.15642C9.79465 8.81192 9.61968 9.33706 9.26974 9.73184C8.91981 10.1192 8.46416 10.3128 7.90279 10.3128ZM12.4629 6.08939H13.7643L8.53706 13.9106H7.23572L12.4629 6.08939ZM7.90279 9.39665C8.15067 9.39665 8.34386 9.29236 8.48238 9.0838C8.62819 8.87523 8.70109 8.56611 8.70109 8.15642C8.70109 7.74674 8.62819 7.43762 8.48238 7.22905C8.34386 7.02048 8.15067 6.9162 7.90279 6.9162C7.66221 6.9162 7.46902 7.02421 7.32321 7.24022C7.1774 7.44879 7.1045 7.75419 7.1045 8.15642C7.1045 8.55866 7.1774 8.86778 7.32321 9.0838C7.46902 9.29236 7.66221 9.39665 7.90279 9.39665ZM13.0972 14C12.7327 14 12.4046 13.9143 12.113 13.743C11.8287 13.5642 11.6063 13.311 11.4459 12.9832C11.2855 12.6555 11.2053 12.2756 11.2053 11.8436C11.2053 11.4115 11.2855 11.0317 11.4459 10.7039C11.6063 10.3762 11.8287 10.1266 12.113 9.95531C12.4046 9.77654 12.7327 9.68715 13.0972 9.68715C13.6586 9.68715 14.1142 9.88454 14.4642 10.2793C14.8214 10.6667 15 11.1881 15 11.8436C15 12.4991 14.8214 13.0242 14.4642 13.419C14.1142 13.8063 13.6586 14 13.0972 14ZM13.0972 13.0838C13.3451 13.0838 13.5383 12.9795 13.6768 12.7709C13.8226 12.5549 13.8955 12.2458 13.8955 11.8436C13.8955 11.4413 13.8226 11.1359 13.6768 10.9274C13.5383 10.7114 13.3451 10.6034 13.0972 10.6034C12.8566 10.6034 12.6634 10.7076 12.5176 10.9162C12.3718 11.1248 12.2989 11.4339 12.2989 11.8436C12.2989 12.2533 12.3718 12.5624 12.5176 12.7709C12.6634 12.9795 12.8566 13.0838 13.0972 13.0838Z" fill="#FE9015"/>
</svg>
