<svg width="24" height="24" viewBox="0 0 24 24" fill="none" xmlns="http://www.w3.org/2000/svg">
<path d="M21 9H19.58L15.868 2.504L14.132 3.496L17.277 9H6.72301L9.86901 3.496L8.13201 2.504L4.42001 9H3.00001C2.68801 9 2.39501 9.146 2.20501 9.393C2.01601 9.641 1.95301 9.963 2.03501 10.263L4.83401 20.527C5.07101 21.395 5.86501 22 6.76401 22H17.237C18.135 22 18.929 21.395 19.167 20.525L21.966 10.262C22.048 9.962 21.986 9.64 21.796 9.392C21.605 9.146 21.312 9 21 9ZM17.236 20V21V20H6.76401L4.31001 11H19.69L17.236 20Z" fill="#FE9015"/>
<path d="M9 13H11V18H9V13ZM13 13H15V18H13V13Z" fill="#FE9015"/>
</svg>
